<svg width="52" height="52" viewBox="0 0 52 52" fill="none" xmlns="http://www.w3.org/2000/svg">
<rect width="52" height="52" rx="10" fill="#2684FC"/>
<path d="M27.7337 31.0491C27.7357 32.5804 27.4884 34.1011 27.0022 35.5475C26.5092 35.6066 26.0133 35.6357 25.517 35.6346C23.3967 35.6346 21.3072 35.1103 19.4226 34.1054C17.5381 33.1005 15.9131 31.6442 14.6832 29.858C13.4533 28.0717 12.6541 26.0072 12.3523 23.8366C12.0504 21.666 12.2547 19.4522 12.948 17.3798C13.441 17.3207 13.9369 17.2916 14.4332 17.2927C17.9607 17.2927 21.3438 18.7421 23.8381 21.3219C26.3324 23.9017 27.7337 27.4007 27.7337 31.0491Z" fill="white"/>
<path d="M38.8179 21.8782C38.8168 25.0835 37.7336 28.1878 35.7553 30.655C33.777 33.1222 31.0278 34.7975 27.9824 35.3916C28.4082 33.9863 28.6235 32.5218 28.6208 31.0491C28.6204 30.1118 28.5328 29.1766 28.3593 28.2566C28.3061 27.9677 28.244 27.6834 28.1731 27.3991C29.4077 25.6834 31.0134 24.2905 32.8619 23.3318C34.7103 22.3731 36.7501 21.8753 38.8179 21.8782Z" fill="white"/>
</svg>
