<svg width="212" height="54" viewBox="0 0 212 54" fill="none" xmlns="http://www.w3.org/2000/svg">
<rect width="53.9842" height="53.9842" rx="10.7968" fill="white"/>
<path d="M29.6909 33.5962C29.6934 35.514 29.3922 37.4186 28.8002 39.2301C28.1999 39.3041 27.596 39.3406 26.9917 39.3392C24.41 39.3391 21.8657 38.6825 19.571 37.424C17.2763 36.1654 15.2977 34.3415 13.8001 32.1043C12.3025 29.8672 11.3294 27.2815 10.9618 24.563C10.5943 21.8445 10.843 19.0718 11.6872 16.4763C12.2875 16.4023 12.8914 16.3659 13.4957 16.3672C17.7909 16.3672 21.9103 18.1824 24.9475 21.4135C27.9847 24.6445 29.6909 29.0268 29.6909 33.5962Z" fill="#2684FC"/>
<path d="M43.1879 22.1104C43.1866 26.1248 41.8676 30.0127 39.4587 33.1027C37.0499 36.1928 33.7023 38.291 29.9941 39.035C30.5126 37.2749 30.7748 35.4408 30.7715 33.5964C30.7709 32.4224 30.6643 31.2512 30.453 30.0989C30.3882 29.7371 30.3126 29.381 30.2263 29.0249C31.7296 26.8762 33.6848 25.1316 35.9356 23.9309C38.1863 22.7303 40.67 22.1068 43.1879 22.1104Z" fill="#2684FC"/>
<path d="M74.1955 16.1017H81.7676C83.0921 16.1017 84.3013 16.3129 85.3954 16.7352C86.4895 17.1574 87.4204 17.7908 88.1882 18.6354C88.9559 19.4608 89.551 20.5068 89.9732 21.7737C90.3955 23.0213 90.6066 24.4801 90.6066 26.15C90.6066 27.8199 90.3955 29.2883 89.9732 30.5551C89.551 31.8027 88.9559 32.8488 88.1882 33.6934C87.4204 34.5187 86.4895 35.1426 85.3954 35.5648C84.3013 35.9871 83.0921 36.1982 81.7676 36.1982H74.1955V16.1017ZM81.7676 32.3114C83.0729 32.3114 84.0998 31.9467 84.8483 31.2173C85.5969 30.4879 85.9712 29.3171 85.9712 27.7047V24.5952C85.9712 22.9829 85.5969 21.8121 84.8483 21.0827C84.0998 20.3533 83.0729 19.9886 81.7676 19.9886H78.5718V32.3114H81.7676ZM100.346 36.5437C99.1942 36.5437 98.1673 36.3614 97.2651 35.9967C96.363 35.6128 95.5952 35.085 94.9618 34.4132C94.3476 33.7222 93.8773 32.8872 93.551 31.9083C93.2439 30.9294 93.0904 29.8353 93.0904 28.6261C93.0904 27.436 93.2439 26.3611 93.551 25.4014C93.8581 24.4225 94.3092 23.5875 94.9042 22.8965C95.5185 22.2055 96.267 21.6777 97.15 21.313C98.0329 20.9291 99.0406 20.7372 100.173 20.7372C101.421 20.7372 102.486 20.9483 103.369 21.3706C104.271 21.7929 105 22.3591 105.557 23.0693C106.133 23.7795 106.546 24.6048 106.795 25.5454C107.064 26.4667 107.198 27.436 107.198 28.4533V29.7201H97.4955V29.9505C97.4955 30.9486 97.7642 31.7451 98.3016 32.3402C98.8391 32.916 99.6836 33.2039 100.835 33.2039C101.718 33.2039 102.438 33.0312 102.995 32.6857C103.551 32.321 104.07 31.8891 104.549 31.3901L106.68 34.0389C106.008 34.8258 105.125 35.4401 104.031 35.8815C102.956 36.323 101.728 36.5437 100.346 36.5437ZM100.259 23.8755C99.3957 23.8755 98.7143 24.1634 98.2153 24.7392C97.7354 25.2958 97.4955 26.0444 97.4955 26.9849V27.2153H102.793V26.9562C102.793 26.0348 102.582 25.2958 102.16 24.7392C101.757 24.1634 101.123 23.8755 100.259 23.8755ZM115.505 36.1982C114.027 36.1982 112.904 35.824 112.137 35.0754C111.388 34.3268 111.014 33.2327 111.014 31.7931V24.3937H108.883V21.0827H109.949C110.524 21.0827 110.918 20.9483 111.129 20.6796C111.34 20.3917 111.446 19.9886 111.446 19.4703V16.9943H115.275V21.0827H118.269V24.3937H115.275V32.8872H118.039V36.1982H115.505ZM127.25 36.5437C126.136 36.5437 125.138 36.3614 124.255 35.9967C123.391 35.632 122.652 35.1042 122.038 34.4132C121.443 33.7222 120.983 32.8872 120.656 31.9083C120.33 30.9294 120.167 29.8353 120.167 28.6261C120.167 27.4168 120.33 26.3227 120.656 25.3438C120.983 24.3649 121.443 23.5396 122.038 22.8678C122.652 22.1768 123.391 21.6489 124.255 21.2842C125.138 20.9195 126.136 20.7372 127.25 20.7372C128.363 20.7372 129.351 20.9195 130.215 21.2842C131.098 21.6489 131.837 22.1768 132.432 22.8678C133.046 23.5396 133.516 24.3649 133.843 25.3438C134.169 26.3227 134.332 27.4168 134.332 28.6261C134.332 29.8353 134.169 30.9294 133.843 31.9083C133.516 32.8872 133.046 33.7222 132.432 34.4132C131.837 35.1042 131.098 35.632 130.215 35.9967C129.351 36.3614 128.363 36.5437 127.25 36.5437ZM127.25 33.1751C128.094 33.1751 128.747 32.916 129.207 32.3978C129.668 31.8795 129.898 31.1405 129.898 30.1808V27.1001C129.898 26.1404 129.668 25.4014 129.207 24.8832C128.747 24.3649 128.094 24.1058 127.25 24.1058C126.405 24.1058 125.752 24.3649 125.292 24.8832C124.831 25.4014 124.601 26.1404 124.601 27.1001V30.1808C124.601 31.1405 124.831 31.8795 125.292 32.3978C125.752 32.916 126.405 33.1751 127.25 33.1751ZM135.45 36.1982L140.431 28.5109L135.508 21.0827H140.345L143.166 25.8333H143.281L146.017 21.0827H150.508L145.498 28.6549L150.537 36.1982H145.7L142.792 31.2749H142.677L139.884 36.1982H135.45ZM168.183 36.5437C166.82 36.5437 165.592 36.3326 164.498 35.9103C163.404 35.4689 162.473 34.8258 161.705 33.9813C160.937 33.1175 160.342 32.0523 159.92 30.7854C159.498 29.4994 159.287 28.0022 159.287 26.2939C159.287 24.6048 159.498 23.1077 159.92 21.8025C160.342 20.4781 160.937 19.3744 161.705 18.4914C162.473 17.5893 163.404 16.9079 164.498 16.4472C165.592 15.9866 166.82 15.7562 168.183 15.7562C170.045 15.7562 171.581 16.1401 172.79 16.9079C173.999 17.6565 174.968 18.8465 175.698 20.4781L171.926 22.4359C171.657 21.5913 171.235 20.9195 170.659 20.4205C170.103 19.9022 169.277 19.6431 168.183 19.6431C166.897 19.6431 165.861 20.0654 165.074 20.9099C164.306 21.7353 163.922 22.9445 163.922 24.5377V27.7623C163.922 29.3554 164.306 30.5743 165.074 31.4188C165.861 32.2442 166.897 32.6569 168.183 32.6569C169.258 32.6569 170.112 32.369 170.746 31.7931C171.398 31.1981 171.878 30.4879 172.185 29.6626L175.755 31.7356C175.007 33.2711 174.018 34.4612 172.79 35.3057C171.581 36.1311 170.045 36.5437 168.183 36.5437ZM180.718 19.4703C179.854 19.4703 179.221 19.2784 178.818 18.8945C178.434 18.4914 178.242 17.9828 178.242 17.3686V16.7352C178.242 16.1209 178.434 15.6219 178.818 15.238C179.221 14.8349 179.854 14.6334 180.718 14.6334C181.582 14.6334 182.206 14.8349 182.59 15.238C182.993 15.6219 183.194 16.1209 183.194 16.7352V17.3686C183.194 17.9828 182.993 18.4914 182.59 18.8945C182.206 19.2784 181.582 19.4703 180.718 19.4703ZM178.588 21.0827H182.849V36.1982H178.588V21.0827ZM192.123 36.1982C190.645 36.1982 189.523 35.824 188.755 35.0754C188.006 34.3268 187.632 33.2327 187.632 31.7931V24.3937H185.501V21.0827H186.567C187.142 21.0827 187.536 20.9483 187.747 20.6796C187.958 20.3917 188.064 19.9886 188.064 19.4703V16.9943H191.893V21.0827H194.887V24.3937H191.893V32.8872H194.657V36.1982H192.123ZM207.09 21.0827H211.063L205.247 38.5304C204.863 39.7012 204.316 40.565 203.606 41.1216C202.915 41.6782 201.917 41.9566 200.612 41.9566H197.963V38.6455H200.813L201.331 36.9756L196.034 21.0827H200.266L202.483 28.1366L203.577 32.5129H203.75L204.873 28.1366L207.09 21.0827Z" fill="white"/>
</svg>
