<svg width="212" height="68" viewBox="0 0 212 68" fill="none" xmlns="http://www.w3.org/2000/svg">
<rect y="0.288086" width="67" height="67" rx="12.8846" fill="white"/>
<path d="M35.7342 40.294C35.7367 42.267 35.4181 44.2264 34.7916 46.0899C34.1564 46.1661 33.5174 46.2036 32.878 46.2022C30.1461 46.2021 27.4538 45.5266 25.0257 44.2318C22.5975 42.9371 20.5038 41.0608 18.9191 38.7592C17.3344 36.4577 16.3047 33.7976 15.9158 31.0009C15.5268 28.2042 15.79 25.3518 16.6833 22.6816C17.3185 22.6055 17.9575 22.568 18.597 22.5694C23.1421 22.5694 27.501 24.4368 30.7148 27.7608C33.9286 31.0848 35.7342 35.5931 35.7342 40.294Z" fill="#2684FC"/>
<path d="M50.0148 28.4785C50.0134 32.6084 48.6178 36.6082 46.0688 39.7871C43.5198 42.9661 39.9776 45.1246 36.0537 45.89C36.6023 44.0793 36.8797 42.1925 36.8763 40.2949C36.8757 39.0872 36.7628 37.8823 36.5393 36.6968C36.4707 36.3246 36.3907 35.9583 36.2993 35.592C37.8901 33.3814 39.9591 31.5867 42.3407 30.3515C44.7223 29.1163 47.3505 28.4748 50.0148 28.4785Z" fill="#2684FC"/>
<path d="M81.869 7.01308H88.6463C89.8317 7.01308 90.914 7.20205 91.8932 7.58C92.8725 7.95795 93.7057 8.52487 94.3928 9.28077C95.08 10.0195 95.6126 10.9558 95.9905 12.0896C96.3685 13.2063 96.5575 14.5119 96.5575 16.0065C96.5575 17.5012 96.3685 18.8154 95.9905 19.9492C95.6126 21.0659 95.08 22.0022 94.3928 22.7581C93.7057 23.4968 92.8725 24.0551 91.8932 24.4331C90.914 24.811 89.8317 25 88.6463 25H81.869V7.01308ZM88.6463 21.5212C89.8145 21.5212 90.7336 21.1947 91.4036 20.5419C92.0736 19.8891 92.4086 18.8412 92.4086 17.3981V14.615C92.4086 13.1719 92.0736 12.124 91.4036 11.4712C90.7336 10.8183 89.8145 10.4919 88.6463 10.4919H85.7859V21.5212H88.6463ZM105.274 25.3092C104.244 25.3092 103.324 25.146 102.517 24.8196C101.71 24.476 101.022 24.0036 100.455 23.4023C99.9057 22.7838 99.4848 22.0365 99.1928 21.1604C98.9179 20.2842 98.7805 19.305 98.7805 18.2227C98.7805 17.1576 98.9179 16.1955 99.1928 15.3365C99.4676 14.4604 99.8714 13.7131 100.404 13.0946C100.954 12.4762 101.624 12.0037 102.414 11.6773C103.204 11.3337 104.106 11.1619 105.12 11.1619C106.236 11.1619 107.19 11.3509 107.98 11.7288C108.788 12.1068 109.44 12.6136 109.939 13.2492C110.454 13.8849 110.823 14.6236 111.047 15.4654C111.287 16.29 111.407 17.1576 111.407 18.0681V19.2019H102.723V19.4081C102.723 20.3014 102.964 21.0144 103.445 21.5469C103.926 22.0623 104.682 22.32 105.712 22.32C106.503 22.32 107.147 22.1654 107.645 21.8562C108.143 21.5297 108.607 21.1432 109.037 20.6965L110.944 23.0673C110.342 23.7717 109.552 24.3214 108.573 24.7165C107.611 25.1117 106.511 25.3092 105.274 25.3092ZM105.197 13.9708C104.424 13.9708 103.814 14.2285 103.367 14.7438C102.938 15.2421 102.723 15.9121 102.723 16.7538V16.96H107.465V16.7281C107.465 15.9035 107.276 15.2421 106.898 14.7438C106.537 14.2285 105.97 13.9708 105.197 13.9708ZM118.842 25C117.52 25 116.515 24.665 115.827 23.995C115.157 23.325 114.822 22.3458 114.822 21.0573V14.4346H112.915V11.4712H113.869C114.384 11.4712 114.737 11.3509 114.925 11.1104C115.114 10.8527 115.209 10.4919 115.209 10.0281V7.81192H118.636V11.4712H121.316V14.4346H118.636V22.0365H121.11V25H118.842ZM129.354 25.3092C128.357 25.3092 127.464 25.146 126.674 24.8196C125.901 24.4932 125.239 24.0208 124.69 23.4023C124.157 22.7838 123.745 22.0365 123.453 21.1604C123.161 20.2842 123.015 19.305 123.015 18.2227C123.015 17.1404 123.161 16.1612 123.453 15.285C123.745 14.4088 124.157 13.6701 124.69 13.0688C125.239 12.4504 125.901 11.9779 126.674 11.6515C127.464 11.3251 128.357 11.1619 129.354 11.1619C130.35 11.1619 131.235 11.3251 132.008 11.6515C132.798 11.9779 133.46 12.4504 133.992 13.0688C134.542 13.6701 134.963 14.4088 135.255 15.285C135.547 16.1612 135.693 17.1404 135.693 18.2227C135.693 19.305 135.547 20.2842 135.255 21.1604C134.963 22.0365 134.542 22.7838 133.992 23.4023C133.46 24.0208 132.798 24.4932 132.008 24.8196C131.235 25.146 130.35 25.3092 129.354 25.3092ZM129.354 22.2942C130.11 22.2942 130.694 22.0623 131.106 21.5985C131.518 21.1346 131.725 20.4732 131.725 19.6142V16.8569C131.725 15.9979 131.518 15.3365 131.106 14.8727C130.694 14.4088 130.11 14.1769 129.354 14.1769C128.598 14.1769 128.014 14.4088 127.602 14.8727C127.189 15.3365 126.983 15.9979 126.983 16.8569V19.6142C126.983 20.4732 127.189 21.1346 127.602 21.5985C128.014 22.0623 128.598 22.2942 129.354 22.2942ZM136.694 25L141.152 18.1196L136.745 11.4712H141.074L143.6 15.7231H143.703L146.151 11.4712H150.171L145.687 18.2485L150.197 25H145.867L143.265 20.5935H143.162L140.662 25H136.694ZM165.991 25.3092C164.771 25.3092 163.671 25.1203 162.692 24.7423C161.713 24.3472 160.88 23.7717 160.193 23.0158C159.505 22.2427 158.973 21.2892 158.595 20.1554C158.217 19.0044 158.028 17.6644 158.028 16.1354C158.028 14.6236 158.217 13.2836 158.595 12.1154C158.973 10.93 159.505 9.94218 160.193 9.15192C160.88 8.34449 161.713 7.73461 162.692 7.32231C163.671 6.91 164.771 6.70384 165.991 6.70384C167.657 6.70384 169.031 7.04743 170.114 7.73461C171.196 8.40461 172.064 9.46974 172.716 10.93L169.341 12.6823C169.1 11.9264 168.722 11.3251 168.207 10.8785C167.709 10.4146 166.97 10.1827 165.991 10.1827C164.84 10.1827 163.912 10.5606 163.208 11.3165C162.52 12.0553 162.177 13.1376 162.177 14.5635V17.4496C162.177 18.8755 162.52 19.9664 163.208 20.7223C163.912 21.461 164.84 21.8304 165.991 21.8304C166.953 21.8304 167.717 21.5727 168.284 21.0573C168.868 20.5247 169.298 19.8891 169.573 19.1504L172.768 21.0058C172.098 22.3801 171.213 23.4453 170.114 24.2012C169.031 24.9399 167.657 25.3092 165.991 25.3092ZM177.21 10.0281C176.437 10.0281 175.87 9.85628 175.509 9.51269C175.165 9.15192 174.994 8.69666 174.994 8.14692V7.58C174.994 7.03026 175.165 6.58359 175.509 6.24C175.87 5.87923 176.437 5.69885 177.21 5.69885C177.983 5.69885 178.541 5.87923 178.885 6.24C179.245 6.58359 179.426 7.03026 179.426 7.58V8.14692C179.426 8.69666 179.245 9.15192 178.885 9.51269C178.541 9.85628 177.983 10.0281 177.21 10.0281ZM175.303 11.4712H179.117V25H175.303V11.4712ZM187.418 25C186.095 25 185.09 24.665 184.403 23.995C183.733 23.325 183.398 22.3458 183.398 21.0573V14.4346H181.491V11.4712H182.444C182.96 11.4712 183.312 11.3509 183.501 11.1104C183.69 10.8527 183.784 10.4919 183.784 10.0281V7.81192H187.212V11.4712H189.892V14.4346H187.212V22.0365H189.685V25H187.418ZM200.813 11.4712H204.369L199.164 27.0873C198.82 28.1353 198.33 28.9083 197.695 29.4065C197.076 29.9047 196.183 30.1538 195.015 30.1538H192.644V27.1904H195.195L195.659 25.6958L190.918 11.4712H194.706L196.69 17.7846L197.669 21.7015H197.824L198.829 17.7846L200.813 11.4712Z" fill="white"/>
<path d="M88.0794 42.6913H82.6215V47.5771H81.3227V36.785H82.6215V41.5471H88.0794V36.785H89.3782V47.5771H88.0794V42.6913ZM97.9289 47.5771C97.465 47.5771 97.13 47.4535 96.9239 47.2061C96.728 46.9587 96.6043 46.6495 96.5528 46.2784H96.4755C96.3002 46.7731 96.0116 47.1442 95.6096 47.3916C95.2076 47.639 94.7283 47.7627 94.1717 47.7627C93.3265 47.7627 92.6668 47.5462 92.1926 47.1133C91.7288 46.6804 91.4969 46.0928 91.4969 45.3507C91.4969 44.5982 91.77 44.021 92.3163 43.619C92.8729 43.217 93.7336 43.016 94.8984 43.016H96.4755V42.2275C96.4755 41.6605 96.3209 41.2276 96.0116 40.9287C95.7024 40.6298 95.2282 40.4803 94.5892 40.4803C94.1047 40.4803 93.6976 40.5885 93.3677 40.805C93.0482 41.0215 92.7802 41.3101 92.5637 41.6708L91.8216 40.9751C92.038 40.5421 92.3833 40.1762 92.8575 39.8773C93.3316 39.5681 93.9295 39.4135 94.651 39.4135C95.6199 39.4135 96.3724 39.6505 96.9084 40.1247C97.4444 40.5988 97.7124 41.2585 97.7124 42.1038V46.4948H98.6246V47.5771H97.9289ZM94.3727 46.7113C94.6819 46.7113 94.9654 46.6752 95.2231 46.6031C95.4808 46.5309 95.7024 46.4278 95.8879 46.2938C96.0735 46.1598 96.2178 46.0052 96.3209 45.83C96.4239 45.6548 96.4755 45.4641 96.4755 45.2579V43.9437H94.8366C94.1253 43.9437 93.6048 44.0468 93.2749 44.2529C92.9554 44.4591 92.7956 44.758 92.7956 45.1497V45.4744C92.7956 45.8661 92.9348 46.1701 93.2131 46.3866C93.5017 46.6031 93.8882 46.7113 94.3727 46.7113ZM100.39 39.599H101.627V40.8978H101.689C101.895 40.3927 102.194 40.0216 102.586 39.7845C102.988 39.5371 103.467 39.4135 104.023 39.4135C104.518 39.4135 104.967 39.5114 105.369 39.7072C105.771 39.9031 106.111 40.1814 106.389 40.5421C106.678 40.9029 106.894 41.341 107.038 41.8564C107.193 42.3718 107.27 42.949 107.27 43.5881C107.27 44.2271 107.193 44.8044 107.038 45.3198C106.894 45.8351 106.678 46.2732 106.389 46.634C106.111 46.9948 105.771 47.2731 105.369 47.4689C104.967 47.6648 104.518 47.7627 104.023 47.7627C102.941 47.7627 102.163 47.2679 101.689 46.2784H101.627V50.6695H100.39V39.599ZM103.683 46.6495C104.384 46.6495 104.936 46.433 105.338 46.0001C105.74 45.5568 105.941 44.9796 105.941 44.2684V42.9078C105.941 42.1965 105.74 41.6245 105.338 41.1915C104.936 40.7483 104.384 40.5267 103.683 40.5267C103.405 40.5267 103.137 40.5679 102.879 40.6504C102.632 40.7225 102.415 40.8256 102.23 40.9596C102.044 41.0936 101.895 41.2585 101.782 41.4544C101.678 41.6399 101.627 41.8409 101.627 42.0574V45.026C101.627 45.2837 101.678 45.5156 101.782 45.7218C101.895 45.9176 102.044 46.0877 102.23 46.232C102.415 46.366 102.632 46.4691 102.879 46.5412C103.137 46.6134 103.405 46.6495 103.683 46.6495ZM109.359 39.599H110.596V42.9387H112.188L113.735 40.4958C113.848 40.3102 113.956 40.1608 114.059 40.0474C114.162 39.9237 114.265 39.8309 114.368 39.7691C114.472 39.7072 114.58 39.666 114.693 39.6454C114.807 39.6145 114.935 39.599 115.08 39.599H115.806V40.6813H114.848L113.595 42.6604C113.513 42.7944 113.441 42.9026 113.379 42.9851C113.317 43.0675 113.255 43.1397 113.193 43.2015C113.132 43.2531 113.065 43.2995 112.992 43.3407C112.92 43.3716 112.833 43.4025 112.73 43.4335V43.4953C112.946 43.5262 113.132 43.5984 113.286 43.7118C113.451 43.8148 113.621 44.021 113.796 44.3302L115.018 46.4948H115.93V47.5771H115.033C114.765 47.5771 114.518 47.5101 114.291 47.3761C114.075 47.2318 113.863 46.9741 113.657 46.6031L112.188 43.9901H110.596V47.5771H109.359V39.599ZM120.633 47.7627C120.097 47.7627 119.608 47.6648 119.164 47.4689C118.721 47.2731 118.34 46.9948 118.02 46.634C117.711 46.2629 117.469 45.8248 117.293 45.3198C117.118 44.8044 117.031 44.2271 117.031 43.5881C117.031 42.9593 117.118 42.3872 117.293 41.8718C117.469 41.3565 117.711 40.9184 118.02 40.5576C118.34 40.1865 118.721 39.9031 119.164 39.7072C119.608 39.5114 120.097 39.4135 120.633 39.4135C121.169 39.4135 121.654 39.5114 122.087 39.7072C122.53 39.9031 122.911 40.1865 123.231 40.5576C123.55 40.9184 123.798 41.3565 123.973 41.8718C124.148 42.3872 124.236 42.9593 124.236 43.5881C124.236 44.2271 124.148 44.8044 123.973 45.3198C123.798 45.8248 123.55 46.2629 123.231 46.634C122.911 46.9948 122.53 47.2731 122.087 47.4689C121.654 47.6648 121.169 47.7627 120.633 47.7627ZM120.633 46.6649C121.303 46.6649 121.849 46.4588 122.272 46.0465C122.695 45.6341 122.906 45.0054 122.906 44.1601V43.016C122.906 42.1708 122.695 41.542 122.272 41.1297C121.849 40.7174 121.303 40.5112 120.633 40.5112C119.963 40.5112 119.417 40.7174 118.994 41.1297C118.572 41.542 118.36 42.1708 118.36 43.016V44.1601C118.36 45.0054 118.572 45.6341 118.994 46.0465C119.417 46.4588 119.963 46.6649 120.633 46.6649ZM125.019 46.4948H126.07C126.204 46.3093 126.323 46.0877 126.426 45.83C126.529 45.5723 126.617 45.2631 126.689 44.9023C126.761 44.5415 126.818 44.1138 126.859 43.619C126.9 43.1242 126.921 42.5418 126.921 41.8718V39.599H132.317V47.5771H131.08V40.6813H128.096V41.9028C128.096 42.6758 128.065 43.351 128.003 43.9282C127.952 44.5055 127.874 45.0002 127.771 45.4125C127.678 45.8248 127.565 46.165 127.431 46.433C127.297 46.6907 127.153 46.8968 126.998 47.0515C126.802 47.2473 126.586 47.3865 126.349 47.4689C126.112 47.5411 125.828 47.5771 125.498 47.5771H125.019V46.4948ZM137.967 47.7627C137.431 47.7627 136.941 47.6648 136.498 47.4689C136.055 47.2731 135.674 46.9948 135.354 46.634C135.045 46.2629 134.803 45.8248 134.627 45.3198C134.452 44.8044 134.364 44.2271 134.364 43.5881C134.364 42.9593 134.452 42.3872 134.627 41.8718C134.803 41.3565 135.045 40.9184 135.354 40.5576C135.674 40.1865 136.055 39.9031 136.498 39.7072C136.941 39.5114 137.431 39.4135 137.967 39.4135C138.503 39.4135 138.987 39.5114 139.42 39.7072C139.864 39.9031 140.245 40.1865 140.565 40.5576C140.884 40.9184 141.131 41.3565 141.307 41.8718C141.482 42.3872 141.57 42.9593 141.57 43.5881C141.57 44.2271 141.482 44.8044 141.307 45.3198C141.131 45.8248 140.884 46.2629 140.565 46.634C140.245 46.9948 139.864 47.2731 139.42 47.4689C138.987 47.6648 138.503 47.7627 137.967 47.7627ZM137.967 46.6649C138.637 46.6649 139.183 46.4588 139.606 46.0465C140.029 45.6341 140.24 45.0054 140.24 44.1601V43.016C140.24 42.1708 140.029 41.542 139.606 41.1297C139.183 40.7174 138.637 40.5112 137.967 40.5112C137.297 40.5112 136.751 40.7174 136.328 41.1297C135.905 41.542 135.694 42.1708 135.694 43.016V44.1601C135.694 45.0054 135.905 45.6341 136.328 46.0465C136.751 46.4588 137.297 46.6649 137.967 46.6649ZM143.604 39.599H148.644V40.6813H144.841V47.5771H143.604V39.599ZM150.323 39.599H151.529V44.021L151.405 45.9382H151.467L152.457 44.2375L155.642 39.599H156.786V47.5771H155.58V43.1551L155.704 41.2379H155.642L154.652 42.9387L151.467 47.5771H150.323V39.599ZM163.866 43.9128H163.788C163.541 44.1911 163.237 44.423 162.876 44.6085C162.515 44.7838 162.041 44.8714 161.454 44.8714C160.639 44.8714 160.005 44.6704 159.552 44.2684C159.098 43.8561 158.871 43.2376 158.871 42.413V39.599H160.108V42.3048C160.108 43.2737 160.68 43.7581 161.825 43.7581C162.412 43.7581 162.897 43.6808 163.278 43.5262C163.67 43.3613 163.866 43.1139 163.866 42.7841V39.599H165.102V47.5771H163.866V43.9128ZM170.732 47.7627C170.186 47.7627 169.691 47.6648 169.248 47.4689C168.815 47.2731 168.438 46.9948 168.119 46.634C167.81 46.2629 167.567 45.8248 167.392 45.3198C167.227 44.8044 167.145 44.2271 167.145 43.5881C167.145 42.9593 167.227 42.3872 167.392 41.8718C167.567 41.3565 167.81 40.9184 168.119 40.5576C168.438 40.1865 168.815 39.9031 169.248 39.7072C169.691 39.5114 170.186 39.4135 170.732 39.4135C171.268 39.4135 171.747 39.5114 172.17 39.7072C172.592 39.9031 172.953 40.1762 173.252 40.5267C173.551 40.8668 173.778 41.274 173.932 41.7481C174.097 42.2223 174.18 42.7428 174.18 43.3098V43.8973H168.444V44.2684C168.444 44.6085 168.495 44.9281 168.598 45.227C168.712 45.5156 168.866 45.7681 169.062 45.9846C169.268 46.2011 169.516 46.3711 169.804 46.4948C170.103 46.6185 170.438 46.6804 170.809 46.6804C171.314 46.6804 171.752 46.5618 172.123 46.3248C172.505 46.0877 172.799 45.7475 173.005 45.3043L173.886 45.9382C173.628 46.4845 173.226 46.9278 172.68 47.2679C172.134 47.5978 171.484 47.7627 170.732 47.7627ZM170.732 40.4494C170.392 40.4494 170.082 40.5112 169.804 40.6349C169.526 40.7483 169.284 40.9132 169.077 41.1297C168.882 41.3461 168.727 41.6038 168.614 41.9028C168.5 42.1914 168.444 42.5109 168.444 42.8614V42.9696H172.85V42.7995C172.85 42.0883 172.654 41.5214 172.263 41.0988C171.881 40.6658 171.371 40.4494 170.732 40.4494ZM179.187 47.7627C178.63 47.7627 178.13 47.6648 177.687 47.4689C177.244 47.2731 176.867 46.9948 176.558 46.634C176.259 46.2732 176.027 45.8351 175.862 45.3198C175.708 44.8044 175.63 44.2271 175.63 43.5881C175.63 42.949 175.708 42.3718 175.862 41.8564C176.027 41.341 176.259 40.9029 176.558 40.5421C176.867 40.1814 177.244 39.9031 177.687 39.7072C178.13 39.5114 178.63 39.4135 179.187 39.4135C179.98 39.4135 180.614 39.5887 181.088 39.9391C181.573 40.2793 181.934 40.7277 182.171 41.2843L181.135 41.81C180.99 41.3977 180.753 41.0781 180.424 40.8514C180.094 40.6246 179.681 40.5112 179.187 40.5112C178.816 40.5112 178.491 40.5731 178.213 40.6968C177.934 40.8101 177.702 40.9751 177.517 41.1915C177.331 41.3977 177.192 41.6502 177.099 41.9491C177.007 42.2378 176.96 42.5573 176.96 42.9078V44.2684C176.96 44.9693 177.146 45.5465 177.517 46.0001C177.898 46.4433 178.455 46.6649 179.187 46.6649C180.186 46.6649 180.908 46.2011 181.351 45.2734L182.248 45.8764C181.99 46.4536 181.604 46.9123 181.088 47.2525C180.583 47.5926 179.949 47.7627 179.187 47.7627ZM183.994 39.599H185.231V42.9387H186.824L188.37 40.4958C188.483 40.3102 188.591 40.1608 188.694 40.0474C188.797 39.9237 188.901 39.8309 189.004 39.7691C189.107 39.7072 189.215 39.666 189.328 39.6454C189.442 39.6145 189.571 39.599 189.715 39.599H190.442V40.6813H189.483L188.231 42.6604C188.148 42.7944 188.076 42.9026 188.014 42.9851C187.952 43.0675 187.89 43.1397 187.829 43.2015C187.767 43.2531 187.7 43.2995 187.628 43.3407C187.555 43.3716 187.468 43.4025 187.365 43.4335V43.4953C187.581 43.5262 187.767 43.5984 187.921 43.7118C188.086 43.8148 188.256 44.021 188.432 44.3302L189.653 46.4948H190.565V47.5771H189.668C189.4 47.5771 189.153 47.5101 188.926 47.3761C188.71 47.2318 188.499 46.9741 188.292 46.6031L186.824 43.9901H185.231V47.5771H183.994V39.599ZM198.142 47.5771C197.678 47.5771 197.343 47.4535 197.137 47.2061C196.941 46.9587 196.817 46.6495 196.766 46.2784H196.689C196.513 46.7731 196.225 47.1442 195.823 47.3916C195.421 47.639 194.941 47.7627 194.385 47.7627C193.54 47.7627 192.88 47.5462 192.406 47.1133C191.942 46.6804 191.71 46.0928 191.71 45.3507C191.71 44.5982 191.983 44.021 192.529 43.619C193.086 43.217 193.947 43.016 195.112 43.016H196.689V42.2275C196.689 41.6605 196.534 41.2276 196.225 40.9287C195.916 40.6298 195.441 40.4803 194.802 40.4803C194.318 40.4803 193.911 40.5885 193.581 40.805C193.261 41.0215 192.993 41.3101 192.777 41.6708L192.035 40.9751C192.251 40.5421 192.596 40.1762 193.071 39.8773C193.545 39.5681 194.143 39.4135 194.864 39.4135C195.833 39.4135 196.586 39.6505 197.122 40.1247C197.658 40.5988 197.926 41.2585 197.926 42.1038V46.4948H198.838V47.5771H198.142ZM194.586 46.7113C194.895 46.7113 195.179 46.6752 195.436 46.6031C195.694 46.5309 195.916 46.4278 196.101 46.2938C196.287 46.1598 196.431 46.0052 196.534 45.83C196.637 45.6548 196.689 45.4641 196.689 45.2579V43.9437H195.05C194.338 43.9437 193.818 44.0468 193.488 44.2529C193.169 44.4591 193.009 44.758 193.009 45.1497V45.4744C193.009 45.8661 193.148 46.1701 193.426 46.3866C193.715 46.6031 194.101 46.7113 194.586 46.7113ZM199.892 46.4948H200.773L201.283 45.3198C201.397 45.0518 201.536 44.8508 201.701 44.7168C201.866 44.5725 202.051 44.4848 202.258 44.4539V44.3921C201.546 44.3302 201.01 44.0983 200.65 43.6963C200.289 43.2943 200.108 42.7531 200.108 42.0728C200.108 41.2998 200.34 40.6968 200.804 40.2638C201.268 39.8206 201.907 39.599 202.721 39.599H206.247V47.5771H205.01V44.5158H202.938L202.103 46.4794C201.917 46.9123 201.711 47.2061 201.484 47.3607C201.268 47.505 201.021 47.5771 200.742 47.5771H199.892V46.4948ZM205.01 43.4644V40.6813H202.907C202.443 40.6813 202.082 40.7689 201.825 40.9441C201.567 41.1194 201.438 41.4131 201.438 41.8255V42.3357C201.438 42.748 201.567 43.0418 201.825 43.217C202.082 43.3819 202.443 43.4644 202.907 43.4644H205.01ZM81.199 56.599H82.4359V59.9387H84.0285L85.5746 57.4958C85.688 57.3102 85.7962 57.1608 85.8993 57.0474C86.0024 56.9237 86.1055 56.8309 86.2085 56.7691C86.3116 56.7072 86.4198 56.666 86.5332 56.6454C86.6466 56.6145 86.7755 56.599 86.9198 56.599H87.6465V57.6813H86.6878L85.4355 59.6604C85.353 59.7944 85.2808 59.9026 85.219 59.9851C85.1572 60.0675 85.0953 60.1397 85.0335 60.2015C84.9716 60.2531 84.9046 60.2995 84.8325 60.3407C84.7603 60.3716 84.6727 60.4025 84.5696 60.4335V60.4953C84.7861 60.5262 84.9716 60.5984 85.1262 60.7118C85.2912 60.8148 85.4612 61.021 85.6365 61.3302L86.8579 63.4948H87.7702V64.5771H86.8734C86.6054 64.5771 86.358 64.5101 86.1312 64.3761C85.9148 64.2318 85.7035 63.9741 85.4973 63.6031L84.0285 60.9901H82.4359V64.5771H81.199V56.599ZM88.5093 63.4948H89.5607C89.6947 63.3093 89.8132 63.0877 89.9163 62.83C90.0194 62.5723 90.107 62.2631 90.1791 61.9023C90.2513 61.5415 90.308 61.1138 90.3492 60.619C90.3904 60.1242 90.4111 59.5418 90.4111 58.8718V56.599H95.8071V64.5771H94.5702V57.6813H91.5861V58.9028C91.5861 59.6758 91.5552 60.351 91.4934 60.9282C91.4418 61.5055 91.3645 62.0002 91.2614 62.4125C91.1687 62.8248 91.0553 63.165 90.9213 63.433C90.7873 63.6907 90.643 63.8968 90.4884 64.0515C90.2925 64.2473 90.0761 64.3865 89.839 64.4689C89.6019 64.5411 89.3184 64.5771 88.9886 64.5771H88.5093V63.4948ZM98.4422 56.599H99.6482V61.021L99.5245 62.9382H99.5864L100.576 61.2375L103.761 56.599H104.905V64.5771H103.699V60.1551L103.823 58.2379H103.761L102.771 59.9387L99.5864 64.5771H98.4422V56.599ZM107.532 56.599H108.769V59.9232H112.758V56.599H113.995V64.5771H112.758V61.0055H108.769V64.5771H107.532V56.599ZM116.622 56.599H117.828V61.021L117.704 62.9382H117.766L118.755 61.2375L121.94 56.599H123.085V64.5771H121.879V60.1551L122.002 58.2379H121.94L120.951 59.9387L117.766 64.5771H116.622V56.599ZM125.711 56.599H126.948V59.9387H128.541L130.087 57.4958C130.2 57.3102 130.309 57.1608 130.412 57.0474C130.515 56.9237 130.618 56.8309 130.721 56.7691C130.824 56.7072 130.932 56.666 131.046 56.6454C131.159 56.6145 131.288 56.599 131.432 56.599H132.159V57.6813H131.2L129.948 59.6604C129.865 59.7944 129.793 59.9026 129.731 59.9851C129.669 60.0675 129.608 60.1397 129.546 60.2015C129.484 60.2531 129.417 60.2995 129.345 60.3407C129.273 60.3716 129.185 60.4025 129.082 60.4335V60.4953C129.298 60.5262 129.484 60.5984 129.639 60.7118C129.803 60.8148 129.974 61.021 130.149 61.3302L131.37 63.4948H132.282V64.5771H131.386C131.118 64.5771 130.87 64.5101 130.644 64.3761C130.427 64.2318 130.216 63.9741 130.01 63.6031L128.541 60.9901H126.948V64.5771H125.711V56.599ZM139.859 64.5771C139.395 64.5771 139.06 64.4535 138.854 64.2061C138.658 63.9587 138.535 63.6495 138.483 63.2784H138.406C138.231 63.7731 137.942 64.1442 137.54 64.3916C137.138 64.639 136.659 64.7627 136.102 64.7627C135.257 64.7627 134.597 64.5462 134.123 64.1133C133.659 63.6804 133.427 63.0928 133.427 62.3507C133.427 61.5982 133.7 61.021 134.247 60.619C134.803 60.217 135.664 60.016 136.829 60.016H138.406V59.2275C138.406 58.6605 138.251 58.2276 137.942 57.9287C137.633 57.6298 137.159 57.4803 136.52 57.4803C136.035 57.4803 135.628 57.5885 135.298 57.805C134.979 58.0215 134.711 58.3101 134.494 58.6708L133.752 57.9751C133.968 57.5421 134.314 57.1762 134.788 56.8773C135.262 56.5681 135.86 56.4135 136.581 56.4135C137.55 56.4135 138.303 56.6505 138.839 57.1247C139.375 57.5988 139.643 58.2585 139.643 59.1038V63.4948H140.555V64.5771H139.859ZM136.303 63.7113C136.612 63.7113 136.896 63.6752 137.153 63.6031C137.411 63.5309 137.633 63.4278 137.818 63.2938C138.004 63.1598 138.148 63.0052 138.251 62.83C138.354 62.6548 138.406 62.4641 138.406 62.2579V60.9437H136.767C136.056 60.9437 135.535 61.0468 135.205 61.2529C134.886 61.4591 134.726 61.758 134.726 62.1497V62.4744C134.726 62.8661 134.865 63.1701 135.143 63.3866C135.432 63.6031 135.819 63.7113 136.303 63.7113Z" fill="white" fill-opacity="0.8"/>
</svg>
