<svg width="118" height="30" viewBox="0 0 118 30" fill="none" xmlns="http://www.w3.org/2000/svg">
<rect width="30" height="30" rx="6" fill="#2684FC"/>
<path d="M16.4998 18.6702C16.5011 19.736 16.3338 20.7944 16.0048 21.801C15.6712 21.8422 15.3356 21.8624 14.9998 21.8617C13.5651 21.8616 12.1512 21.4967 10.876 20.7973C9.60075 20.098 8.50118 19.0844 7.66894 17.8411C6.83671 16.5979 6.29592 15.161 6.09167 13.6503C5.88742 12.1395 6.02563 10.5987 6.49478 9.15636C6.82838 9.11521 7.16395 9.09497 7.49978 9.09572C9.88673 9.09572 12.1759 10.1045 13.8637 11.9C15.5516 13.6956 16.4998 16.1309 16.4998 18.6702Z" fill="white"/>
<path d="M24 12.2872C23.9993 14.5181 23.2663 16.6787 21.9276 18.3959C20.589 20.1131 18.7287 21.2791 16.668 21.6926C16.9561 20.7145 17.1018 19.6952 17.1 18.6702C17.0996 18.0178 17.0404 17.3669 16.923 16.7266C16.887 16.5255 16.845 16.3277 16.797 16.1298C17.6324 14.9357 18.719 13.9662 19.9697 13.299C21.2205 12.6317 22.6007 12.2852 24 12.2872Z" fill="white"/>
<path d="M41.232 9.832H45.44C46.176 9.832 46.848 9.94933 47.456 10.184C48.064 10.4187 48.5813 10.7707 49.008 11.24C49.4347 11.6987 49.7653 12.28 50 12.984C50.2347 13.6773 50.352 14.488 50.352 15.416C50.352 16.344 50.2347 17.16 50 17.864C49.7653 18.5573 49.4347 19.1387 49.008 19.608C48.5813 20.0667 48.064 20.4133 47.456 20.648C46.848 20.8827 46.176 21 45.44 21H41.232V9.832ZM45.44 18.84C46.1653 18.84 46.736 18.6373 47.152 18.232C47.568 17.8267 47.776 17.176 47.776 16.28V14.552C47.776 13.656 47.568 13.0053 47.152 12.6C46.736 12.1947 46.1653 11.992 45.44 11.992H43.664V18.84H45.44ZM55.7643 21.192C55.1243 21.192 54.5536 21.0907 54.0523 20.888C53.5509 20.6747 53.1243 20.3813 52.7723 20.008C52.4309 19.624 52.1696 19.16 51.9883 18.616C51.8176 18.072 51.7323 17.464 51.7323 16.792C51.7323 16.1307 51.8176 15.5333 51.9883 15C52.1589 14.456 52.4096 13.992 52.7403 13.608C53.0816 13.224 53.4976 12.9307 53.9883 12.728C54.4789 12.5147 55.0389 12.408 55.6683 12.408C56.3616 12.408 56.9536 12.5253 57.4443 12.76C57.9456 12.9947 58.3509 13.3093 58.6603 13.704C58.9803 14.0987 59.2096 14.5573 59.3483 15.08C59.4976 15.592 59.5723 16.1307 59.5723 16.696V17.4H54.1803V17.528C54.1803 18.0827 54.3296 18.5253 54.6283 18.856C54.9269 19.176 55.3963 19.336 56.0363 19.336C56.5269 19.336 56.9269 19.24 57.2363 19.048C57.5456 18.8453 57.8336 18.6053 58.1003 18.328L59.2843 19.8C58.9109 20.2373 58.4203 20.5787 57.8123 20.824C57.2149 21.0693 56.5323 21.192 55.7643 21.192ZM55.7163 14.152C55.2363 14.152 54.8576 14.312 54.5803 14.632C54.3136 14.9413 54.1803 15.3573 54.1803 15.88V16.008H57.1243V15.864C57.1243 15.352 57.0069 14.9413 56.7723 14.632C56.5483 14.312 56.1963 14.152 55.7163 14.152ZM64.1886 21C63.3673 21 62.7433 20.792 62.3166 20.376C61.9006 19.96 61.6926 19.352 61.6926 18.552V14.44H60.5086V12.6H61.1006C61.4206 12.6 61.6393 12.5253 61.7566 12.376C61.874 12.216 61.9326 11.992 61.9326 11.704V10.328H64.0606V12.6H65.7246V14.44H64.0606V19.16H65.5966V21H64.1886ZM70.7151 21.192C70.0965 21.192 69.5418 21.0907 69.0511 20.888C68.5711 20.6853 68.1605 20.392 67.8191 20.008C67.4885 19.624 67.2325 19.16 67.0511 18.616C66.8698 18.072 66.7791 17.464 66.7791 16.792C66.7791 16.12 66.8698 15.512 67.0511 14.968C67.2325 14.424 67.4885 13.9653 67.8191 13.592C68.1605 13.208 68.5711 12.9147 69.0511 12.712C69.5418 12.5093 70.0965 12.408 70.7151 12.408C71.3338 12.408 71.8831 12.5093 72.3631 12.712C72.8538 12.9147 73.2645 13.208 73.5951 13.592C73.9365 13.9653 74.1978 14.424 74.3791 14.968C74.5605 15.512 74.6511 16.12 74.6511 16.792C74.6511 17.464 74.5605 18.072 74.3791 18.616C74.1978 19.16 73.9365 19.624 73.5951 20.008C73.2645 20.392 72.8538 20.6853 72.3631 20.888C71.8831 21.0907 71.3338 21.192 70.7151 21.192ZM70.7151 19.32C71.1845 19.32 71.5471 19.176 71.8031 18.888C72.0591 18.6 72.1871 18.1893 72.1871 17.656V15.944C72.1871 15.4107 72.0591 15 71.8031 14.712C71.5471 14.424 71.1845 14.28 70.7151 14.28C70.2458 14.28 69.8831 14.424 69.6271 14.712C69.3711 15 69.2431 15.4107 69.2431 15.944V17.656C69.2431 18.1893 69.3711 18.6 69.6271 18.888C69.8831 19.176 70.2458 19.32 70.7151 19.32ZM75.2724 21L78.0404 16.728L75.3044 12.6H77.9924L79.5604 15.24H79.6244L81.1444 12.6H83.6404L80.8564 16.808L83.6564 21H80.9684L79.3524 18.264H79.2884L77.7364 21H75.2724ZM93.4628 21.192C92.7054 21.192 92.0228 21.0747 91.4148 20.84C90.8068 20.5947 90.2894 20.2373 89.8628 19.768C89.4361 19.288 89.1054 18.696 88.8708 17.992C88.6361 17.2773 88.5188 16.4453 88.5188 15.496C88.5188 14.5573 88.6361 13.7253 88.8708 13C89.1054 12.264 89.4361 11.6507 89.8628 11.16C90.2894 10.6587 90.8068 10.28 91.4148 10.024C92.0228 9.768 92.7054 9.64 93.4628 9.64C94.4974 9.64 95.3508 9.85333 96.0228 10.28C96.6948 10.696 97.2334 11.3573 97.6388 12.264L95.5428 13.352C95.3934 12.8827 95.1588 12.5093 94.8388 12.232C94.5294 11.944 94.0708 11.8 93.4628 11.8C92.7481 11.8 92.1721 12.0347 91.7348 12.504C91.3081 12.9627 91.0948 13.6347 91.0948 14.52V16.312C91.0948 17.1973 91.3081 17.8747 91.7348 18.344C92.1721 18.8027 92.7481 19.032 93.4628 19.032C94.0601 19.032 94.5348 18.872 94.8868 18.552C95.2494 18.2213 95.5161 17.8267 95.6868 17.368L97.6708 18.52C97.2548 19.3733 96.7054 20.0347 96.0228 20.504C95.3508 20.9627 94.4974 21.192 93.4628 21.192ZM100.429 11.704C99.9486 11.704 99.5966 11.5973 99.3726 11.384C99.1593 11.16 99.0526 10.8773 99.0526 10.536V10.184C99.0526 9.84267 99.1593 9.56533 99.3726 9.352C99.5966 9.128 99.9486 9.016 100.429 9.016C100.909 9.016 101.255 9.128 101.469 9.352C101.693 9.56533 101.805 9.84267 101.805 10.184V10.536C101.805 10.8773 101.693 11.16 101.469 11.384C101.255 11.5973 100.909 11.704 100.429 11.704ZM99.2446 12.6H101.613V21H99.2446V12.6ZM106.767 21C105.945 21 105.321 20.792 104.895 20.376C104.479 19.96 104.271 19.352 104.271 18.552V14.44H103.087V12.6H103.679C103.999 12.6 104.217 12.5253 104.335 12.376C104.452 12.216 104.511 11.992 104.511 11.704V10.328H106.639V12.6H108.303V14.44H106.639V19.16H108.175V21H106.767ZM115.084 12.6H117.292L114.06 22.296C113.846 22.9467 113.542 23.4267 113.148 23.736C112.764 24.0453 112.209 24.2 111.484 24.2H110.012V22.36H111.596L111.884 21.432L108.94 12.6H111.292L112.524 16.52L113.132 18.952H113.228L113.852 16.52L115.084 12.6Z" fill="#4A4A4A"/>
</svg>
