<svg width="164" height="52" viewBox="0 0 164 52" fill="none" xmlns="http://www.w3.org/2000/svg">
<rect width="52" height="52" rx="10" fill="#2684FC"/>
<path d="M27.7337 31.0491C27.7357 32.5804 27.4884 34.1011 27.0022 35.5475C26.5092 35.6066 26.0133 35.6357 25.517 35.6346C23.3967 35.6346 21.3072 35.1103 19.4226 34.1054C17.5381 33.1005 15.9131 31.6442 14.6832 29.858C13.4533 28.0717 12.6541 26.0072 12.3523 23.8366C12.0504 21.666 12.2547 19.4522 12.948 17.3798C13.441 17.3207 13.9369 17.2916 14.4332 17.2927C17.9607 17.2927 21.3438 18.7421 23.8381 21.3219C26.3324 23.9017 27.7337 27.4007 27.7337 31.0491Z" fill="white"/>
<path d="M38.8179 21.8782C38.8168 25.0835 37.7336 28.1878 35.7553 30.655C33.777 33.1222 31.0278 34.7975 27.9824 35.3916C28.4082 33.9863 28.6235 32.5218 28.6208 31.0491C28.6204 30.1118 28.5328 29.1766 28.3593 28.2566C28.3061 27.9677 28.244 27.6834 28.1731 27.3991C29.4077 25.6834 31.0134 24.2905 32.8619 23.3318C34.7103 22.3731 36.7501 21.8753 38.8179 21.8782Z" fill="white"/>
<path d="M63.54 6.04H68.8C69.72 6.04 70.56 6.18667 71.32 6.48C72.08 6.77333 72.7267 7.21333 73.26 7.8C73.7933 8.37333 74.2067 9.1 74.5 9.98C74.7933 10.8467 74.94 11.86 74.94 13.02C74.94 14.18 74.7933 15.2 74.5 16.08C74.2067 16.9467 73.7933 17.6733 73.26 18.26C72.7267 18.8333 72.08 19.2667 71.32 19.56C70.56 19.8533 69.72 20 68.8 20H63.54V6.04ZM68.8 17.3C69.7067 17.3 70.42 17.0467 70.94 16.54C71.46 16.0333 71.72 15.22 71.72 14.1V11.94C71.72 10.82 71.46 10.0067 70.94 9.5C70.42 8.99333 69.7067 8.74 68.8 8.74H66.58V17.3H68.8ZM81.7053 20.24C80.9053 20.24 80.192 20.1133 79.5653 19.86C78.9386 19.5933 78.4053 19.2267 77.9653 18.76C77.5386 18.28 77.212 17.7 76.9853 17.02C76.772 16.34 76.6653 15.58 76.6653 14.74C76.6653 13.9133 76.772 13.1667 76.9853 12.5C77.1986 11.82 77.512 11.24 77.9253 10.76C78.352 10.28 78.872 9.91333 79.4853 9.66C80.0986 9.39333 80.7986 9.26 81.5853 9.26C82.452 9.26 83.192 9.40667 83.8053 9.7C84.432 9.99333 84.9386 10.3867 85.3253 10.88C85.7253 11.3733 86.012 11.9467 86.1853 12.6C86.372 13.24 86.4653 13.9133 86.4653 14.62V15.5H79.7253V15.66C79.7253 16.3533 79.912 16.9067 80.2853 17.32C80.6586 17.72 81.2453 17.92 82.0453 17.92C82.6586 17.92 83.1586 17.8 83.5453 17.56C83.932 17.3067 84.292 17.0067 84.6253 16.66L86.1053 18.5C85.6386 19.0467 85.0253 19.4733 84.2653 19.78C83.5186 20.0867 82.6653 20.24 81.7053 20.24ZM81.6453 11.44C81.0453 11.44 80.572 11.64 80.2253 12.04C79.892 12.4267 79.7253 12.9467 79.7253 13.6V13.76H83.4053V13.58C83.4053 12.94 83.2586 12.4267 82.9653 12.04C82.6853 11.64 82.2453 11.44 81.6453 11.44ZM92.2358 20C91.2091 20 90.4291 19.74 89.8958 19.22C89.3758 18.7 89.1158 17.94 89.1158 16.94V11.8H87.6358V9.5H88.3758C88.7758 9.5 89.0491 9.40667 89.1958 9.22C89.3424 9.02 89.4158 8.74 89.4158 8.38V6.66H92.0758V9.5H94.1558V11.8H92.0758V17.7H93.9958V20H92.2358ZM100.394 20.24C99.6206 20.24 98.9272 20.1133 98.3139 19.86C97.7139 19.6067 97.2006 19.24 96.7739 18.76C96.3606 18.28 96.0406 17.7 95.8139 17.02C95.5872 16.34 95.4739 15.58 95.4739 14.74C95.4739 13.9 95.5872 13.14 95.8139 12.46C96.0406 11.78 96.3606 11.2067 96.7739 10.74C97.2006 10.26 97.7139 9.89333 98.3139 9.64C98.9272 9.38667 99.6206 9.26 100.394 9.26C101.167 9.26 101.854 9.38667 102.454 9.64C103.067 9.89333 103.581 10.26 103.994 10.74C104.421 11.2067 104.747 11.78 104.974 12.46C105.201 13.14 105.314 13.9 105.314 14.74C105.314 15.58 105.201 16.34 104.974 17.02C104.747 17.7 104.421 18.28 103.994 18.76C103.581 19.24 103.067 19.6067 102.454 19.86C101.854 20.1133 101.167 20.24 100.394 20.24ZM100.394 17.9C100.981 17.9 101.434 17.72 101.754 17.36C102.074 17 102.234 16.4867 102.234 15.82V13.68C102.234 13.0133 102.074 12.5 101.754 12.14C101.434 11.78 100.981 11.6 100.394 11.6C99.8072 11.6 99.3539 11.78 99.0339 12.14C98.7139 12.5 98.5539 13.0133 98.5539 13.68V15.82C98.5539 16.4867 98.7139 17 99.0339 17.36C99.3539 17.72 99.8072 17.9 100.394 17.9ZM106.09 20L109.55 14.66L106.13 9.5H109.49L111.45 12.8H111.53L113.43 9.5H116.55L113.07 14.76L116.57 20H113.21L111.19 16.58H111.11L109.17 20H106.09ZM128.828 20.24C127.882 20.24 127.028 20.0933 126.268 19.8C125.508 19.4933 124.862 19.0467 124.328 18.46C123.795 17.86 123.382 17.12 123.088 16.24C122.795 15.3467 122.648 14.3067 122.648 13.12C122.648 11.9467 122.795 10.9067 123.088 10C123.382 9.08 123.795 8.31333 124.328 7.7C124.862 7.07333 125.508 6.6 126.268 6.28C127.028 5.96 127.882 5.8 128.828 5.8C130.122 5.8 131.188 6.06667 132.028 6.6C132.868 7.12 133.542 7.94667 134.048 9.08L131.428 10.44C131.242 9.85333 130.948 9.38667 130.548 9.04C130.162 8.68 129.588 8.5 128.828 8.5C127.935 8.5 127.215 8.79333 126.668 9.38C126.135 9.95333 125.868 10.7933 125.868 11.9V14.14C125.868 15.2467 126.135 16.0933 126.668 16.68C127.215 17.2533 127.935 17.54 128.828 17.54C129.575 17.54 130.168 17.34 130.608 16.94C131.062 16.5267 131.395 16.0333 131.608 15.46L134.088 16.9C133.568 17.9667 132.882 18.7933 132.028 19.38C131.188 19.9533 130.122 20.24 128.828 20.24ZM137.536 8.38C136.936 8.38 136.496 8.24667 136.216 7.98C135.949 7.7 135.816 7.34667 135.816 6.92V6.48C135.816 6.05333 135.949 5.70667 136.216 5.44C136.496 5.16 136.936 5.02 137.536 5.02C138.136 5.02 138.569 5.16 138.836 5.44C139.116 5.70667 139.256 6.05333 139.256 6.48V6.92C139.256 7.34667 139.116 7.7 138.836 7.98C138.569 8.24667 138.136 8.38 137.536 8.38ZM136.056 9.5H139.016V20H136.056V9.5ZM145.458 20C144.432 20 143.652 19.74 143.118 19.22C142.598 18.7 142.338 17.94 142.338 16.94V11.8H140.858V9.5H141.598C141.998 9.5 142.272 9.40667 142.418 9.22C142.565 9.02 142.638 8.74 142.638 8.38V6.66H145.298V9.5H147.378V11.8H145.298V17.7H147.218V20H145.458ZM155.855 9.5H158.615L154.575 21.62C154.308 22.4333 153.928 23.0333 153.435 23.42C152.955 23.8067 152.261 24 151.355 24H149.515V21.7H151.495L151.855 20.54L148.175 9.5H151.115L152.655 14.4L153.415 17.44H153.535L154.315 14.4L155.855 9.5Z" fill="#4A4A4A"/>
<path d="M68.36 33.208H64.124V37H63.116V28.624H64.124V32.32H68.36V28.624H69.368V37H68.36V33.208ZM76.0044 37C75.6444 37 75.3844 36.904 75.2244 36.712C75.0724 36.52 74.9764 36.28 74.9364 35.992H74.8764C74.7404 36.376 74.5164 36.664 74.2044 36.856C73.8924 37.048 73.5204 37.144 73.0884 37.144C72.4324 37.144 71.9204 36.976 71.5524 36.64C71.1924 36.304 71.0124 35.848 71.0124 35.272C71.0124 34.688 71.2244 34.24 71.6484 33.928C72.0804 33.616 72.7484 33.46 73.6524 33.46H74.8764V32.848C74.8764 32.408 74.7564 32.072 74.5164 31.84C74.2764 31.608 73.9084 31.492 73.4124 31.492C73.0364 31.492 72.7204 31.576 72.4644 31.744C72.2164 31.912 72.0084 32.136 71.8404 32.416L71.2644 31.876C71.4324 31.54 71.7004 31.256 72.0684 31.024C72.4364 30.784 72.9004 30.664 73.4604 30.664C74.2124 30.664 74.7964 30.848 75.2124 31.216C75.6284 31.584 75.8364 32.096 75.8364 32.752V36.16H76.5444V37H76.0044ZM73.2444 36.328C73.4844 36.328 73.7044 36.3 73.9044 36.244C74.1044 36.188 74.2764 36.108 74.4204 36.004C74.5644 35.9 74.6764 35.78 74.7564 35.644C74.8364 35.508 74.8764 35.36 74.8764 35.2V34.18H73.6044C73.0524 34.18 72.6484 34.26 72.3924 34.42C72.1444 34.58 72.0204 34.812 72.0204 35.116V35.368C72.0204 35.672 72.1284 35.908 72.3444 36.076C72.5684 36.244 72.8684 36.328 73.2444 36.328ZM77.9145 30.808H78.8745V31.816H78.9225C79.0825 31.424 79.3145 31.136 79.6185 30.952C79.9305 30.76 80.3025 30.664 80.7345 30.664C81.1185 30.664 81.4665 30.74 81.7785 30.892C82.0905 31.044 82.3545 31.26 82.5705 31.54C82.7945 31.82 82.9625 32.16 83.0745 32.56C83.1945 32.96 83.2545 33.408 83.2545 33.904C83.2545 34.4 83.1945 34.848 83.0745 35.248C82.9625 35.648 82.7945 35.988 82.5705 36.268C82.3545 36.548 82.0905 36.764 81.7785 36.916C81.4665 37.068 81.1185 37.144 80.7345 37.144C79.8945 37.144 79.2905 36.76 78.9225 35.992H78.8745V39.4H77.9145V30.808ZM80.4705 36.28C81.0145 36.28 81.4425 36.112 81.7545 35.776C82.0665 35.432 82.2225 34.984 82.2225 34.432V33.376C82.2225 32.824 82.0665 32.38 81.7545 32.044C81.4425 31.7 81.0145 31.528 80.4705 31.528C80.2545 31.528 80.0465 31.56 79.8465 31.624C79.6545 31.68 79.4865 31.76 79.3425 31.864C79.1985 31.968 79.0825 32.096 78.9945 32.248C78.9145 32.392 78.8745 32.548 78.8745 32.716V35.02C78.8745 35.22 78.9145 35.4 78.9945 35.56C79.0825 35.712 79.1985 35.844 79.3425 35.956C79.4865 36.06 79.6545 36.14 79.8465 36.196C80.0465 36.252 80.2545 36.28 80.4705 36.28ZM84.8755 30.808H85.8355V33.4H87.0715L88.2715 31.504C88.3595 31.36 88.4435 31.244 88.5235 31.156C88.6035 31.06 88.6835 30.988 88.7635 30.94C88.8435 30.892 88.9275 30.86 89.0155 30.844C89.1035 30.82 89.2035 30.808 89.3155 30.808H89.8795V31.648H89.1355L88.1635 33.184C88.0995 33.288 88.0435 33.372 87.9955 33.436C87.9475 33.5 87.8995 33.556 87.8515 33.604C87.8035 33.644 87.7515 33.68 87.6955 33.712C87.6395 33.736 87.5715 33.76 87.4915 33.784V33.832C87.6595 33.856 87.8035 33.912 87.9235 34C88.0515 34.08 88.1835 34.24 88.3195 34.48L89.2675 36.16H89.9755V37H89.2795C89.0715 37 88.8795 36.948 88.7035 36.844C88.5355 36.732 88.3715 36.532 88.2115 36.244L87.0715 34.216H85.8355V37H84.8755V30.808ZM93.6256 37.144C93.2096 37.144 92.8296 37.068 92.4856 36.916C92.1416 36.764 91.8456 36.548 91.5976 36.268C91.3576 35.98 91.1696 35.64 91.0336 35.248C90.8976 34.848 90.8296 34.4 90.8296 33.904C90.8296 33.416 90.8976 32.972 91.0336 32.572C91.1696 32.172 91.3576 31.832 91.5976 31.552C91.8456 31.264 92.1416 31.044 92.4856 30.892C92.8296 30.74 93.2096 30.664 93.6256 30.664C94.0416 30.664 94.4176 30.74 94.7536 30.892C95.0976 31.044 95.3936 31.264 95.6416 31.552C95.8896 31.832 96.0816 32.172 96.2176 32.572C96.3536 32.972 96.4216 33.416 96.4216 33.904C96.4216 34.4 96.3536 34.848 96.2176 35.248C96.0816 35.64 95.8896 35.98 95.6416 36.268C95.3936 36.548 95.0976 36.764 94.7536 36.916C94.4176 37.068 94.0416 37.144 93.6256 37.144ZM93.6256 36.292C94.1456 36.292 94.5696 36.132 94.8976 35.812C95.2256 35.492 95.3896 35.004 95.3896 34.348V33.46C95.3896 32.804 95.2256 32.316 94.8976 31.996C94.5696 31.676 94.1456 31.516 93.6256 31.516C93.1056 31.516 92.6816 31.676 92.3536 31.996C92.0256 32.316 91.8616 32.804 91.8616 33.46V34.348C91.8616 35.004 92.0256 35.492 92.3536 35.812C92.6816 36.132 93.1056 36.292 93.6256 36.292ZM97.0296 36.16H97.8456C97.9496 36.016 98.0416 35.844 98.1216 35.644C98.2016 35.444 98.2696 35.204 98.3256 34.924C98.3816 34.644 98.4256 34.312 98.4576 33.928C98.4896 33.544 98.5056 33.092 98.5056 32.572V30.808H102.694V37H101.734V31.648H99.4176V32.596C99.4176 33.196 99.3936 33.72 99.3456 34.168C99.3056 34.616 99.2456 35 99.1656 35.32C99.0936 35.64 99.0056 35.904 98.9016 36.112C98.7976 36.312 98.6856 36.472 98.5656 36.592C98.4136 36.744 98.2456 36.852 98.0616 36.916C97.8776 36.972 97.6576 37 97.4016 37H97.0296V36.16ZM107.079 37.144C106.663 37.144 106.283 37.068 105.939 36.916C105.595 36.764 105.299 36.548 105.051 36.268C104.811 35.98 104.623 35.64 104.487 35.248C104.351 34.848 104.283 34.4 104.283 33.904C104.283 33.416 104.351 32.972 104.487 32.572C104.623 32.172 104.811 31.832 105.051 31.552C105.299 31.264 105.595 31.044 105.939 30.892C106.283 30.74 106.663 30.664 107.079 30.664C107.495 30.664 107.871 30.74 108.207 30.892C108.551 31.044 108.847 31.264 109.095 31.552C109.343 31.832 109.535 32.172 109.671 32.572C109.807 32.972 109.875 33.416 109.875 33.904C109.875 34.4 109.807 34.848 109.671 35.248C109.535 35.64 109.343 35.98 109.095 36.268C108.847 36.548 108.551 36.764 108.207 36.916C107.871 37.068 107.495 37.144 107.079 37.144ZM107.079 36.292C107.599 36.292 108.023 36.132 108.351 35.812C108.679 35.492 108.843 35.004 108.843 34.348V33.46C108.843 32.804 108.679 32.316 108.351 31.996C108.023 31.676 107.599 31.516 107.079 31.516C106.559 31.516 106.135 31.676 105.807 31.996C105.479 32.316 105.315 32.804 105.315 33.46V34.348C105.315 35.004 105.479 35.492 105.807 35.812C106.135 36.132 106.559 36.292 107.079 36.292ZM111.454 30.808H115.366V31.648H112.414V37H111.454V30.808ZM116.668 30.808H117.604V34.24L117.508 35.728H117.556L118.324 34.408L120.796 30.808H121.684V37H120.748V33.568L120.844 32.08H120.796L120.028 33.4L117.556 37H116.668V30.808ZM127.179 34.156H127.119C126.927 34.372 126.691 34.552 126.411 34.696C126.131 34.832 125.763 34.9 125.307 34.9C124.675 34.9 124.183 34.744 123.831 34.432C123.479 34.112 123.303 33.632 123.303 32.992V30.808H124.263V32.908C124.263 33.66 124.707 34.036 125.595 34.036C126.051 34.036 126.427 33.976 126.723 33.856C127.027 33.728 127.179 33.536 127.179 33.28V30.808H128.139V37H127.179V34.156ZM132.508 37.144C132.084 37.144 131.7 37.068 131.356 36.916C131.02 36.764 130.728 36.548 130.48 36.268C130.24 35.98 130.052 35.64 129.916 35.248C129.788 34.848 129.724 34.4 129.724 33.904C129.724 33.416 129.788 32.972 129.916 32.572C130.052 32.172 130.24 31.832 130.48 31.552C130.728 31.264 131.02 31.044 131.356 30.892C131.7 30.74 132.084 30.664 132.508 30.664C132.924 30.664 133.296 30.74 133.624 30.892C133.952 31.044 134.232 31.256 134.464 31.528C134.696 31.792 134.872 32.108 134.992 32.476C135.12 32.844 135.184 33.248 135.184 33.688V34.144H130.732V34.432C130.732 34.696 130.772 34.944 130.852 35.176C130.94 35.4 131.06 35.596 131.212 35.764C131.372 35.932 131.564 36.064 131.788 36.16C132.02 36.256 132.28 36.304 132.568 36.304C132.96 36.304 133.3 36.212 133.588 36.028C133.884 35.844 134.112 35.58 134.272 35.236L134.956 35.728C134.756 36.152 134.444 36.496 134.02 36.76C133.596 37.016 133.092 37.144 132.508 37.144ZM132.508 31.468C132.244 31.468 132.004 31.516 131.788 31.612C131.572 31.7 131.384 31.828 131.224 31.996C131.072 32.164 130.952 32.364 130.864 32.596C130.776 32.82 130.732 33.068 130.732 33.34V33.424H134.152V33.292C134.152 32.74 134 32.3 133.696 31.972C133.4 31.636 133.004 31.468 132.508 31.468ZM139.07 37.144C138.638 37.144 138.25 37.068 137.906 36.916C137.562 36.764 137.27 36.548 137.03 36.268C136.798 35.988 136.618 35.648 136.49 35.248C136.37 34.848 136.31 34.4 136.31 33.904C136.31 33.408 136.37 32.96 136.49 32.56C136.618 32.16 136.798 31.82 137.03 31.54C137.27 31.26 137.562 31.044 137.906 30.892C138.25 30.74 138.638 30.664 139.07 30.664C139.686 30.664 140.178 30.8 140.546 31.072C140.922 31.336 141.202 31.684 141.386 32.116L140.582 32.524C140.47 32.204 140.286 31.956 140.03 31.78C139.774 31.604 139.454 31.516 139.07 31.516C138.782 31.516 138.53 31.564 138.314 31.66C138.098 31.748 137.918 31.876 137.774 32.044C137.63 32.204 137.522 32.4 137.45 32.632C137.378 32.856 137.342 33.104 137.342 33.376V34.432C137.342 34.976 137.486 35.424 137.774 35.776C138.07 36.12 138.502 36.292 139.07 36.292C139.846 36.292 140.406 35.932 140.75 35.212L141.446 35.68C141.246 36.128 140.946 36.484 140.546 36.748C140.154 37.012 139.662 37.144 139.07 37.144ZM142.801 30.808H143.761V33.4H144.997L146.197 31.504C146.285 31.36 146.369 31.244 146.449 31.156C146.529 31.06 146.609 30.988 146.689 30.94C146.769 30.892 146.853 30.86 146.941 30.844C147.029 30.82 147.129 30.808 147.241 30.808H147.805V31.648H147.061L146.089 33.184C146.025 33.288 145.969 33.372 145.921 33.436C145.873 33.5 145.825 33.556 145.777 33.604C145.729 33.644 145.677 33.68 145.621 33.712C145.565 33.736 145.497 33.76 145.417 33.784V33.832C145.585 33.856 145.729 33.912 145.849 34C145.977 34.08 146.109 34.24 146.245 34.48L147.193 36.16H147.901V37H147.205C146.997 37 146.805 36.948 146.629 36.844C146.461 36.732 146.297 36.532 146.137 36.244L144.997 34.216H143.761V37H142.801V30.808ZM153.782 37C153.422 37 153.162 36.904 153.002 36.712C152.85 36.52 152.754 36.28 152.714 35.992H152.654C152.518 36.376 152.294 36.664 151.982 36.856C151.67 37.048 151.298 37.144 150.866 37.144C150.21 37.144 149.698 36.976 149.33 36.64C148.97 36.304 148.79 35.848 148.79 35.272C148.79 34.688 149.002 34.24 149.426 33.928C149.858 33.616 150.526 33.46 151.43 33.46H152.654V32.848C152.654 32.408 152.534 32.072 152.294 31.84C152.054 31.608 151.686 31.492 151.19 31.492C150.814 31.492 150.498 31.576 150.242 31.744C149.994 31.912 149.786 32.136 149.618 32.416L149.042 31.876C149.21 31.54 149.478 31.256 149.846 31.024C150.214 30.784 150.678 30.664 151.238 30.664C151.99 30.664 152.574 30.848 152.99 31.216C153.406 31.584 153.614 32.096 153.614 32.752V36.16H154.322V37H153.782ZM151.022 36.328C151.262 36.328 151.482 36.3 151.682 36.244C151.882 36.188 152.054 36.108 152.198 36.004C152.342 35.9 152.454 35.78 152.534 35.644C152.614 35.508 152.654 35.36 152.654 35.2V34.18H151.382C150.83 34.18 150.426 34.26 150.17 34.42C149.922 34.58 149.798 34.812 149.798 35.116V35.368C149.798 35.672 149.906 35.908 150.122 36.076C150.346 36.244 150.646 36.328 151.022 36.328ZM155.14 36.16H155.824L156.22 35.248C156.308 35.04 156.416 34.884 156.544 34.78C156.672 34.668 156.816 34.6 156.976 34.576V34.528C156.424 34.48 156.008 34.3 155.728 33.988C155.448 33.676 155.308 33.256 155.308 32.728C155.308 32.128 155.488 31.66 155.848 31.324C156.208 30.98 156.704 30.808 157.336 30.808H160.072V37H159.112V34.624H157.504L156.856 36.148C156.712 36.484 156.552 36.712 156.376 36.832C156.208 36.944 156.016 37 155.8 37H155.14V36.16ZM159.112 33.808V31.648H157.48C157.12 31.648 156.84 31.716 156.64 31.852C156.44 31.988 156.34 32.216 156.34 32.536V32.932C156.34 33.252 156.44 33.48 156.64 33.616C156.84 33.744 157.12 33.808 157.48 33.808H159.112ZM63.02 43.808H63.98V46.4H65.216L66.416 44.504C66.504 44.36 66.588 44.244 66.668 44.156C66.748 44.06 66.828 43.988 66.908 43.94C66.988 43.892 67.072 43.86 67.16 43.844C67.248 43.82 67.348 43.808 67.46 43.808H68.024V44.648H67.28L66.308 46.184C66.244 46.288 66.188 46.372 66.14 46.436C66.092 46.5 66.044 46.556 65.996 46.604C65.948 46.644 65.896 46.68 65.84 46.712C65.784 46.736 65.716 46.76 65.636 46.784V46.832C65.804 46.856 65.948 46.912 66.068 47C66.196 47.08 66.328 47.24 66.464 47.48L67.412 49.16H68.12V50H67.424C67.216 50 67.024 49.948 66.848 49.844C66.68 49.732 66.516 49.532 66.356 49.244L65.216 47.216H63.98V50H63.02V43.808ZM68.6937 49.16H69.5097C69.6137 49.016 69.7057 48.844 69.7857 48.644C69.8657 48.444 69.9337 48.204 69.9897 47.924C70.0457 47.644 70.0897 47.312 70.1217 46.928C70.1537 46.544 70.1697 46.092 70.1697 45.572V43.808H74.3577V50H73.3977V44.648H71.0817V45.596C71.0817 46.196 71.0577 46.72 71.0097 47.168C70.9697 47.616 70.9097 48 70.8297 48.32C70.7577 48.64 70.6697 48.904 70.5657 49.112C70.4617 49.312 70.3497 49.472 70.2297 49.592C70.0777 49.744 69.9097 49.852 69.7257 49.916C69.5417 49.972 69.3217 50 69.0657 50H68.6937V49.16ZM76.4028 43.808H77.3388V47.24L77.2428 48.728H77.2908L78.0588 47.408L80.5308 43.808H81.4188V50H80.4828V46.568L80.5788 45.08H80.5308L79.7628 46.4L77.2908 50H76.4028V43.808ZM83.4575 43.808H84.4175V46.388H87.5135V43.808H88.4735V50H87.5135V47.228H84.4175V50H83.4575V43.808ZM90.5122 43.808H91.4482V47.24L91.3522 48.728H91.4002L92.1682 47.408L94.6402 43.808H95.5282V50H94.5922V46.568L94.6882 45.08H94.6402L93.8722 46.4L91.4002 50H90.5122V43.808ZM97.5669 43.808H98.5269V46.4H99.7629L100.963 44.504C101.051 44.36 101.135 44.244 101.215 44.156C101.295 44.06 101.375 43.988 101.455 43.94C101.535 43.892 101.619 43.86 101.707 43.844C101.795 43.82 101.895 43.808 102.007 43.808H102.571V44.648H101.827L100.855 46.184C100.791 46.288 100.735 46.372 100.687 46.436C100.639 46.5 100.591 46.556 100.543 46.604C100.495 46.644 100.443 46.68 100.387 46.712C100.331 46.736 100.263 46.76 100.183 46.784V46.832C100.351 46.856 100.495 46.912 100.615 47C100.743 47.08 100.875 47.24 101.011 47.48L101.959 49.16H102.667V50H101.971C101.763 50 101.571 49.948 101.395 49.844C101.227 49.732 101.063 49.532 100.903 49.244L99.7629 47.216H98.5269V50H97.5669V43.808ZM108.547 50C108.187 50 107.927 49.904 107.767 49.712C107.615 49.52 107.519 49.28 107.479 48.992H107.419C107.283 49.376 107.059 49.664 106.747 49.856C106.435 50.048 106.063 50.144 105.631 50.144C104.975 50.144 104.463 49.976 104.095 49.64C103.735 49.304 103.555 48.848 103.555 48.272C103.555 47.688 103.767 47.24 104.191 46.928C104.623 46.616 105.291 46.46 106.195 46.46H107.419V45.848C107.419 45.408 107.299 45.072 107.059 44.84C106.819 44.608 106.451 44.492 105.955 44.492C105.579 44.492 105.263 44.576 105.007 44.744C104.759 44.912 104.551 45.136 104.383 45.416L103.807 44.876C103.975 44.54 104.243 44.256 104.611 44.024C104.979 43.784 105.443 43.664 106.003 43.664C106.755 43.664 107.339 43.848 107.755 44.216C108.171 44.584 108.379 45.096 108.379 45.752V49.16H109.087V50H108.547ZM105.787 49.328C106.027 49.328 106.247 49.3 106.447 49.244C106.647 49.188 106.819 49.108 106.963 49.004C107.107 48.9 107.219 48.78 107.299 48.644C107.379 48.508 107.419 48.36 107.419 48.2V47.18H106.147C105.595 47.18 105.191 47.26 104.935 47.42C104.687 47.58 104.563 47.812 104.563 48.116V48.368C104.563 48.672 104.671 48.908 104.887 49.076C105.111 49.244 105.411 49.328 105.787 49.328Z" fill="#4A4A4A" fill-opacity="0.8"/>
</svg>
